<?xml version="1.0" encoding="UTF-8"?>
<svg id="Layer_2" data-name="Layer 2" xmlns="http://www.w3.org/2000/svg" viewBox="0 0 36.4 10.22">
  <g id="Layer_1-2" data-name="Layer 1">
    <g>
      <rect x="16.96" y="0" width="2.47" height="10.22"/>
      <g>
        <path d="M22.04,4.83V0h2.47v4.74c0,2.09.6,3.1,1.88,3.1s2.8-.77,4.53-2.03l2.98-2.06V0h2.5v10.22h-2.32c0-1.13,0-2.86.06-3.99-3.99,2.68-5.78,3.99-8.14,3.99-2.53,0-3.96-1.64-3.96-5.39"/>
        <path d="M14.36,5.39v4.83h-2.47v-4.74c0-2.09-.6-3.1-1.88-3.1s-2.8.77-4.53,2.03l-2.98,2.06v3.76H0V0h2.32c0,1.13,0,2.86-.06,3.99C6.26,1.31,8.05,0,10.4,0c2.53,0,3.96,1.64,3.96,5.39"/>
      </g>
    </g>
  </g>
</svg>